<?xml version="1.0" encoding="utf-8"?>
<!-- Generator: Adobe Illustrator 24.3.0, SVG Export Plug-In . SVG Version: 6.00 Build 0)  -->
<svg version="1.1" id="Layer_1" xmlns="http://www.w3.org/2000/svg" xmlns:xlink="http://www.w3.org/1999/xlink" x="0px" y="0px"
	 viewBox="0 0 512 512" style="enable-background:new 0 0 512 512;" xml:space="preserve">
<style type="text/css">
	.st0{fill:#12323A;}
</style>
<g>
	<path class="st0" d="M0,60.7v390.5C0,484.8,27.2,512,60.7,512h390.5c33.5,0,60.7-27.2,60.7-60.7V60.7C512,27.2,484.8,0,451.3,0
		H60.7C27.2,0,0,27.2,0,60.7z M120.7,424.1l-27.8-21.7c-2.7-2.1-4.3-5.3-4.3-8.8V38.2c0-9.2,10.6-14.4,17.9-8.8l27.8,21.7
		c2.7,2.1,4.3,5.3,4.3,8.8v355.5C138.6,424.6,127.9,429.8,120.7,424.1z M193.1,479l-27.8-20.9c-2.8-2.1-4.4-5.4-4.4-8.9V93.3
		c0-9.1,10.4-14.4,17.8-8.9l27.8,20.9c2.8,2.1,4.4,5.4,4.4,8.9v355.9C210.8,479.2,200.4,484.5,193.1,479z M277.1,433.1l-13.9,10.1
		c-3.9,2.8-9.1,2.8-13,0l-13.9-10.1c-2.9-2.1-4.6-5.4-4.6-9V147.6c0-6.1,5-11.1,11.1-11.1h27.8c6.1,0,11.1,5,11.1,11.1v276.5
		C281.7,427.6,280,431,277.1,433.1z M348.3,460.9l-27.8,21.7c-7.3,5.7-17.9,0.5-17.9-8.8V118.3c0-3.4,1.6-6.7,4.3-8.8l27.8-21.7
		c7.3-5.7,17.9-0.5,17.9,8.8v355.5C352.6,455.5,351,458.8,348.3,460.9z M419.2,405.3l-27.8,21.7c-7.3,5.7-17.9,0.5-17.9-8.8V62.8
		c0-3.5,1.6-6.8,4.4-8.9L405.7,33c7.3-5.5,17.8-0.3,17.8,8.9v354.6C423.5,399.9,421.9,403.2,419.2,405.3z"/>
</g>
</svg>
